ISO-10303-21;
HEADER;
/* Generated by software containing ST-Developer
 * from STEP Tools, Inc. (www.steptools.com) 
 */
/* OPTION: using custom schema-name function */

FILE_DESCRIPTION(
/* description */ (''),
/* implementation_level */ '2;1');

FILE_NAME(
/* name */ 'benchmark',
/* time_stamp */ '2026-07-14T22:37:58+03:00',
/* author */ (''),
/* organization */ (''),
/* preprocessor_version */ 'ST-DEVELOPER v16.5',
/* originating_system */ 'Rhino 7.38',
/* authorisation */ '');

FILE_SCHEMA (('CONFIG_CONTROL_DESIGN'));
ENDSEC;

DATA;
#10=SHAPE_REPRESENTATION_RELATIONSHIP('','',#164,#16);
#11=PLANE('',#166);
#12=PLANE('',#167);
#13=SHELL_BASED_SURFACE_MODEL('shell_1',(#17));
#14=SHELL_BASED_SURFACE_MODEL('shell_2',(#18));
#15=SHELL_BASED_SURFACE_MODEL('shell_3',(#19));
#16=MANIFOLD_SURFACE_SHAPE_REPRESENTATION('shell_rep_0',(#13,#14,#15,#168),
#163);
#17=OPEN_SHELL('',(#20));
#18=OPEN_SHELL('',(#21));
#19=OPEN_SHELL('',(#22));
#20=ADVANCED_FACE('',(#23),#77,.T.);
#21=ADVANCED_FACE('',(#24),#11,.T.);
#22=ADVANCED_FACE('',(#25),#12,.T.);
#23=FACE_OUTER_BOUND('',#26,.T.);
#24=FACE_OUTER_BOUND('',#27,.T.);
#25=FACE_OUTER_BOUND('',#28,.T.);
#26=EDGE_LOOP('',(#29,#30,#31,#32));
#27=EDGE_LOOP('',(#33,#34,#35,#36));
#28=EDGE_LOOP('',(#37,#38,#39,#40));
#29=ORIENTED_EDGE('',*,*,#41,.T.);
#30=ORIENTED_EDGE('',*,*,#42,.T.);
#31=ORIENTED_EDGE('',*,*,#43,.T.);
#32=ORIENTED_EDGE('',*,*,#44,.T.);
#33=ORIENTED_EDGE('',*,*,#45,.T.);
#34=ORIENTED_EDGE('',*,*,#46,.T.);
#35=ORIENTED_EDGE('',*,*,#47,.T.);
#36=ORIENTED_EDGE('',*,*,#48,.T.);
#37=ORIENTED_EDGE('',*,*,#49,.T.);
#38=ORIENTED_EDGE('',*,*,#50,.T.);
#39=ORIENTED_EDGE('',*,*,#51,.T.);
#40=ORIENTED_EDGE('',*,*,#52,.T.);
#41=EDGE_CURVE('',#65,#66,#53,.T.);
#42=EDGE_CURVE('',#66,#67,#54,.T.);
#43=EDGE_CURVE('',#67,#68,#55,.T.);
#44=EDGE_CURVE('',#68,#65,#56,.T.);
#45=EDGE_CURVE('',#69,#70,#57,.T.);
#46=EDGE_CURVE('',#70,#71,#58,.T.);
#47=EDGE_CURVE('',#71,#72,#59,.T.);
#48=EDGE_CURVE('',#72,#69,#60,.T.);
#49=EDGE_CURVE('',#73,#74,#61,.T.);
#50=EDGE_CURVE('',#74,#75,#62,.T.);
#51=EDGE_CURVE('',#75,#76,#63,.T.);
#52=EDGE_CURVE('',#76,#73,#64,.T.);
#53=B_SPLINE_CURVE_WITH_KNOTS('',4,(#220,#221,#222,#223,#224),
 .UNSPECIFIED.,.F.,.F.,(5,5),(0.,1.),.UNSPECIFIED.);
#54=B_SPLINE_CURVE_WITH_KNOTS('',4,(#225,#226,#227,#228,#229,#230,#231,
#232),.UNSPECIFIED.,.F.,.F.,(5,1,1,1,5),(0.,1.,2.,3.,4.),.UNSPECIFIED.);
#55=B_SPLINE_CURVE_WITH_KNOTS('',4,(#233,#234,#235,#236,#237),
 .UNSPECIFIED.,.F.,.F.,(5,5),(-1.,0.),.UNSPECIFIED.);
#56=B_SPLINE_CURVE_WITH_KNOTS('',4,(#238,#239,#240,#241,#242,#243,#244,
#245),.UNSPECIFIED.,.F.,.F.,(5,1,1,1,5),(-4.,-3.,-2.,-1.,0.),
 .UNSPECIFIED.);
#57=B_SPLINE_CURVE_WITH_KNOTS('',4,(#251,#252,#253,#254,#255,#256,#257,
#258),.UNSPECIFIED.,.F.,.F.,(5,1,1,1,5),(0.,1.,2.,3.,4.),.UNSPECIFIED.);
#58=B_SPLINE_CURVE_WITH_KNOTS('',4,(#259,#260,#261,#262,#263,#264),
 .UNSPECIFIED.,.F.,.F.,(5,1,5),(0.,1.,2.),.UNSPECIFIED.);
#59=B_SPLINE_CURVE_WITH_KNOTS('',4,(#265,#266,#267,#268,#269,#270,#271,
#272),.UNSPECIFIED.,.F.,.F.,(5,1,1,1,5),(-4.,-3.,-2.,-1.,0.),
 .UNSPECIFIED.);
#60=B_SPLINE_CURVE_WITH_KNOTS('',4,(#273,#274,#275,#276,#277,#278),
 .UNSPECIFIED.,.F.,.F.,(5,1,5),(-2.,-1.,0.),.UNSPECIFIED.);
#61=B_SPLINE_CURVE_WITH_KNOTS('',4,(#284,#285,#286,#287,#288,#289,#290,
#291),.UNSPECIFIED.,.F.,.F.,(5,1,1,1,5),(0.,1.,2.,3.,4.),.UNSPECIFIED.);
#62=B_SPLINE_CURVE_WITH_KNOTS('',4,(#292,#293,#294,#295,#296,#297),
 .UNSPECIFIED.,.F.,.F.,(5,1,5),(0.,1.,2.),.UNSPECIFIED.);
#63=B_SPLINE_CURVE_WITH_KNOTS('',4,(#298,#299,#300,#301,#302,#303,#304,
#305),.UNSPECIFIED.,.F.,.F.,(5,1,1,1,5),(-4.,-3.,-2.,-1.,0.),
 .UNSPECIFIED.);
#64=B_SPLINE_CURVE_WITH_KNOTS('',4,(#306,#307,#308,#309,#310,#311),
 .UNSPECIFIED.,.F.,.F.,(5,1,5),(-2.,-1.,0.),.UNSPECIFIED.);
#65=VERTEX_POINT('',#216);
#66=VERTEX_POINT('',#217);
#67=VERTEX_POINT('',#218);
#68=VERTEX_POINT('',#219);
#69=VERTEX_POINT('',#247);
#70=VERTEX_POINT('',#248);
#71=VERTEX_POINT('',#249);
#72=VERTEX_POINT('',#250);
#73=VERTEX_POINT('',#280);
#74=VERTEX_POINT('',#281);
#75=VERTEX_POINT('',#282);
#76=VERTEX_POINT('',#283);
#77=B_SPLINE_SURFACE_WITH_KNOTS('',4,4,((#176,#177,#178,#179,#180,#181,
#182,#183),(#184,#185,#186,#187,#188,#189,#190,#191),(#192,#193,#194,#195,
#196,#197,#198,#199),(#200,#201,#202,#203,#204,#205,#206,#207),(#208,#209,
#210,#211,#212,#213,#214,#215)),.UNSPECIFIED.,.F.,.F.,.F.,(5,5),(5,1,1,
1,5),(0.,1.),(0.,1.,2.,3.,4.),.UNSPECIFIED.);
#78=SHAPE_DEFINITION_REPRESENTATION(#79,#164);
#79=PRODUCT_DEFINITION_SHAPE('Document','',#81);
#80=PRODUCT_DEFINITION_CONTEXT('3D Mechanical Parts',#153,'design');
#81=PRODUCT_DEFINITION('A','First version',#123,#80);
#82=DATE_TIME_ROLE('classification_date');
#83=DATE_TIME_ROLE('creation_date');
#84=APPLIED_DATE_AND_TIME_ASSIGNMENT(#108,#82,(#87));
#85=APPLIED_DATE_AND_TIME_ASSIGNMENT(#110,#83,(#81));
#86=SECURITY_CLASSIFICATION_LEVEL('unclassified');
#87=SECURITY_CLASSIFICATION('A','Security for version',#86);
#88=APPLIED_SECURITY_CLASSIFICATION_ASSIGNMENT(#87,(#123));
#89=APPROVAL_ROLE('Version approval');
#90=APPROVAL_ROLE('Version Security approval');
#91=APPROVAL_ROLE('Definition approval');
#92=APPROVAL_PERSON_ORGANIZATION(#141,#117,#89);
#93=APPROVAL_PERSON_ORGANIZATION(#142,#118,#90);
#94=APPROVAL_PERSON_ORGANIZATION(#145,#119,#91);
#95=COORDINATED_UNIVERSAL_TIME_OFFSET(5,0,.BEHIND.);
#96=LOCAL_TIME(0,0,0.,#95);
#97=LOCAL_TIME(0,0,0.,#95);
#98=LOCAL_TIME(0,0,0.,#95);
#99=LOCAL_TIME(0,0,0.,#95);
#100=LOCAL_TIME(0,0,0.,#95);
#101=CALENDAR_DATE(1999,1,1);
#102=CALENDAR_DATE(1999,1,1);
#103=CALENDAR_DATE(1999,1,1);
#104=CALENDAR_DATE(1999,1,1);
#105=CALENDAR_DATE(1999,1,1);
#106=DATE_AND_TIME(#101,#96);
#107=DATE_AND_TIME(#102,#97);
#108=DATE_AND_TIME(#103,#98);
#109=DATE_AND_TIME(#104,#99);
#110=DATE_AND_TIME(#105,#100);
#111=APPROVAL_DATE_TIME(#106,#117);
#112=APPROVAL_DATE_TIME(#107,#118);
#113=APPROVAL_DATE_TIME(#109,#119);
#114=APPROVAL_STATUS('not_yet_approved');
#115=APPROVAL_STATUS('not_yet_approved');
#116=APPROVAL_STATUS('approved');
#117=APPROVAL(#114,'Version approval');
#118=APPROVAL(#115,'Version Security approval');
#119=APPROVAL(#116,'Definition approval');
#120=APPLIED_APPROVAL_ASSIGNMENT(#117,(#123));
#121=APPLIED_APPROVAL_ASSIGNMENT(#118,(#87));
#122=APPLIED_APPROVAL_ASSIGNMENT(#119,(#81));
#123=PRODUCT_DEFINITION_FORMATION_WITH_SPECIFIED_SOURCE('A',
'First version',#155,.MADE.);
#124=PERSON_AND_ORGANIZATION_ROLE('design_owner');
#125=PERSON_AND_ORGANIZATION_ROLE('creator');
#126=PERSON_AND_ORGANIZATION_ROLE('design_supplier');
#127=PERSON_AND_ORGANIZATION_ROLE('classification_officer');
#128=PERSON_AND_ORGANIZATION_ROLE('creator');
#129=ORGANIZATION('STI','lab','lab');
#130=ORGANIZATION('STI','unknown','unknown');
#131=ORGANIZATION('STI','unknown','unknown');
#132=ORGANIZATION('STI','unknown','unknown');
#133=ORGANIZATION('STI','unknown','unknown');
#134=ORGANIZATION('STI','unknown','unknown');
#135=ORGANIZATION('STI','unknown','unknown');
#136=PERSON('1','Box','vc60',$,$,$);
#137=PERSON('2','last','first',$,$,$);
#138=PERSON('3','President','Mr.',$,$,$);
#139=PERSON_AND_ORGANIZATION(#136,#129);
#140=PERSON_AND_ORGANIZATION(#137,#130);
#141=PERSON_AND_ORGANIZATION(#138,#131);
#142=PERSON_AND_ORGANIZATION(#138,#132);
#143=PERSON_AND_ORGANIZATION(#138,#133);
#144=PERSON_AND_ORGANIZATION(#137,#134);
#145=PERSON_AND_ORGANIZATION(#138,#135);
#146=APPLIED_PERSON_AND_ORGANIZATION_ASSIGNMENT(#139,#124,(#155));
#147=APPLIED_PERSON_AND_ORGANIZATION_ASSIGNMENT(#140,#125,(#123));
#148=APPLIED_PERSON_AND_ORGANIZATION_ASSIGNMENT(#140,#126,(#123));
#149=APPLIED_PERSON_AND_ORGANIZATION_ASSIGNMENT(#143,#127,(#87));
#150=APPLIED_PERSON_AND_ORGANIZATION_ASSIGNMENT(#144,#128,(#81));
#151=PRODUCT_RELATED_PRODUCT_CATEGORY('detail','detail',(#155));
#152=APPLICATION_PROTOCOL_DEFINITION('International Standard',
'config_control_design',1994,#153);
#153=APPLICATION_CONTEXT(
'configuration controlled 3d designs of mechanical parts and assemblie
s');
#154=PRODUCT_CONTEXT('3D Mechanical Parts',#153,'mechanical');
#155=PRODUCT('Document','Document','',(#154));
#156=(
LENGTH_UNIT()
NAMED_UNIT(*)
SI_UNIT($,.METRE.)
);
#157=(
NAMED_UNIT(*)
PLANE_ANGLE_UNIT()
SI_UNIT($,.RADIAN.)
);
#158=DIMENSIONAL_EXPONENTS(0.,0.,0.,0.,0.,0.,0.);
#159=PLANE_ANGLE_MEASURE_WITH_UNIT(PLANE_ANGLE_MEASURE(0.01745329252),#157);
#160=(
CONVERSION_BASED_UNIT('DEGREES',#159)
NAMED_UNIT(#158)
PLANE_ANGLE_UNIT()
);
#161=(
NAMED_UNIT(*)
SI_UNIT($,.STERADIAN.)
SOLID_ANGLE_UNIT()
);
#162=UNCERTAINTY_MEASURE_WITH_UNIT(LENGTH_MEASURE(0.001),#156,
'DISTANCE_ACCURACY_VALUE',
'Maximum model space distance between geometric entities at asserted c
onnectivities');
#163=(
GEOMETRIC_REPRESENTATION_CONTEXT(3)
GLOBAL_UNCERTAINTY_ASSIGNED_CONTEXT((#162))
GLOBAL_UNIT_ASSIGNED_CONTEXT((#161,#160,#156))
REPRESENTATION_CONTEXT('ID1','3D')
);
#164=SHAPE_REPRESENTATION('Document',(#165,#168),#163);
#165=AXIS2_PLACEMENT_3D('',#175,#169,#170);
#166=AXIS2_PLACEMENT_3D('',#246,#171,$);
#167=AXIS2_PLACEMENT_3D('',#279,#172,$);
#168=AXIS2_PLACEMENT_3D('',#312,#173,#174);
#169=DIRECTION('',(0.,0.,1.));
#170=DIRECTION('',(1.,0.,0.));
#171=DIRECTION('',(0.,0.,-1.));
#172=DIRECTION('',(0.,0.,-1.));
#173=DIRECTION('',(0.,0.,1.));
#174=DIRECTION('',(1.,0.,0.));
#175=CARTESIAN_POINT('',(0.,0.,0.));
#176=CARTESIAN_POINT('',(0.5,0.,0.));
#177=CARTESIAN_POINT('',(0.5,0.0625,0.));
#178=CARTESIAN_POINT('',(0.636096058507852,0.1875,0.));
#179=CARTESIAN_POINT('',(0.5,0.375,0.));
#180=CARTESIAN_POINT('',(0.350932339589558,0.625,0.));
#181=CARTESIAN_POINT('',(0.5,0.8125,0.));
#182=CARTESIAN_POINT('',(0.5,0.9375,0.));
#183=CARTESIAN_POINT('',(0.5,1.,0.));
#184=CARTESIAN_POINT('',(0.5,0.,0.025));
#185=CARTESIAN_POINT('',(0.5,0.0625,0.025));
#186=CARTESIAN_POINT('',(0.636096058507852,0.1875,0.025));
#187=CARTESIAN_POINT('',(0.5,0.375000000000001,0.025));
#188=CARTESIAN_POINT('',(0.350932339589558,0.624999999999999,0.025));
#189=CARTESIAN_POINT('',(0.5,0.812500000000002,0.025));
#190=CARTESIAN_POINT('',(0.5,0.9375,0.025));
#191=CARTESIAN_POINT('',(0.5,1.,0.025));
#192=CARTESIAN_POINT('',(0.5,0.,0.05));
#193=CARTESIAN_POINT('',(0.5,0.0625,0.0499999999999999));
#194=CARTESIAN_POINT('',(0.636096058507852,0.1875,0.05));
#195=CARTESIAN_POINT('',(0.5,0.374999999999999,0.0499999999999999));
#196=CARTESIAN_POINT('',(0.350932339589558,0.625000000000001,0.0499999999999999));
#197=CARTESIAN_POINT('',(0.5,0.812499999999998,0.05));
#198=CARTESIAN_POINT('',(0.5,0.9375,0.05));
#199=CARTESIAN_POINT('',(0.5,1.,0.05));
#200=CARTESIAN_POINT('',(0.5,0.,0.075));
#201=CARTESIAN_POINT('',(0.5,0.0625,0.0750000000000001));
#202=CARTESIAN_POINT('',(0.636096058507852,0.1875,0.075));
#203=CARTESIAN_POINT('',(0.5,0.375,0.0750000000000001));
#204=CARTESIAN_POINT('',(0.350932339589558,0.625,0.0750000000000001));
#205=CARTESIAN_POINT('',(0.5,0.812500000000001,0.0749999999999999));
#206=CARTESIAN_POINT('',(0.5,0.9375,0.075));
#207=CARTESIAN_POINT('',(0.5,1.,0.075));
#208=CARTESIAN_POINT('',(0.5,0.,0.1));
#209=CARTESIAN_POINT('',(0.5,0.0625,0.1));
#210=CARTESIAN_POINT('',(0.636096058507852,0.1875,0.1));
#211=CARTESIAN_POINT('',(0.5,0.375,0.1));
#212=CARTESIAN_POINT('',(0.350932339589558,0.625,0.1));
#213=CARTESIAN_POINT('',(0.5,0.8125,0.1));
#214=CARTESIAN_POINT('',(0.5,0.9375,0.1));
#215=CARTESIAN_POINT('',(0.5,1.,0.1));
#216=CARTESIAN_POINT('',(0.5,0.,0.));
#217=CARTESIAN_POINT('',(0.5,0.,0.1));
#218=CARTESIAN_POINT('',(0.5,1.,0.1));
#219=CARTESIAN_POINT('',(0.5,1.,0.));
#220=CARTESIAN_POINT('',(0.5,0.,0.));
#221=CARTESIAN_POINT('',(0.5,0.,0.025));
#222=CARTESIAN_POINT('',(0.5,0.,0.05));
#223=CARTESIAN_POINT('',(0.5,0.,0.075));
#224=CARTESIAN_POINT('',(0.5,0.,0.1));
#225=CARTESIAN_POINT('',(0.5,0.,0.1));
#226=CARTESIAN_POINT('',(0.5,0.0625,0.1));
#227=CARTESIAN_POINT('',(0.636096058507852,0.1875,0.1));
#228=CARTESIAN_POINT('',(0.5,0.375,0.1));
#229=CARTESIAN_POINT('',(0.350932339589558,0.625,0.1));
#230=CARTESIAN_POINT('',(0.5,0.8125,0.1));
#231=CARTESIAN_POINT('',(0.5,0.9375,0.1));
#232=CARTESIAN_POINT('',(0.5,1.,0.1));
#233=CARTESIAN_POINT('',(0.5,1.,0.1));
#234=CARTESIAN_POINT('',(0.5,1.,0.075));
#235=CARTESIAN_POINT('',(0.5,1.,0.05));
#236=CARTESIAN_POINT('',(0.5,1.,0.025));
#237=CARTESIAN_POINT('',(0.5,1.,0.));
#238=CARTESIAN_POINT('',(0.5,1.,0.));
#239=CARTESIAN_POINT('',(0.5,0.9375,0.));
#240=CARTESIAN_POINT('',(0.5,0.8125,0.));
#241=CARTESIAN_POINT('',(0.350932339589558,0.625,0.));
#242=CARTESIAN_POINT('',(0.5,0.375,0.));
#243=CARTESIAN_POINT('',(0.636096058507852,0.1875,0.));
#244=CARTESIAN_POINT('',(0.5,0.0625,0.));
#245=CARTESIAN_POINT('',(0.5,0.,0.));
#246=CARTESIAN_POINT('',(0.5,0.,0.));
#247=CARTESIAN_POINT('',(0.5,0.,0.));
#248=CARTESIAN_POINT('',(0.5,1.,0.));
#249=CARTESIAN_POINT('',(1.,1.,0.));
#250=CARTESIAN_POINT('',(1.,0.,0.));
#251=CARTESIAN_POINT('',(0.5,0.,0.));
#252=CARTESIAN_POINT('',(0.5,0.0625,0.));
#253=CARTESIAN_POINT('',(0.636096058507852,0.1875,0.));
#254=CARTESIAN_POINT('',(0.5,0.375,0.));
#255=CARTESIAN_POINT('',(0.350932339589558,0.625,0.));
#256=CARTESIAN_POINT('',(0.5,0.8125,0.));
#257=CARTESIAN_POINT('',(0.5,0.9375,0.));
#258=CARTESIAN_POINT('',(0.5,1.,0.));
#259=CARTESIAN_POINT('',(0.5,1.,0.));
#260=CARTESIAN_POINT('',(0.5625,1.,0.));
#261=CARTESIAN_POINT('',(0.6875,1.,0.));
#262=CARTESIAN_POINT('',(0.812499999999999,1.,0.));
#263=CARTESIAN_POINT('',(0.9375,1.,0.));
#264=CARTESIAN_POINT('',(1.,1.,0.));
#265=CARTESIAN_POINT('',(1.,1.,0.));
#266=CARTESIAN_POINT('',(1.,0.9375,0.));
#267=CARTESIAN_POINT('',(1.,0.8125,0.));
#268=CARTESIAN_POINT('',(1.,0.625,0.));
#269=CARTESIAN_POINT('',(1.,0.375,0.));
#270=CARTESIAN_POINT('',(1.,0.1875,0.));
#271=CARTESIAN_POINT('',(1.,0.0625,0.));
#272=CARTESIAN_POINT('',(1.,0.,0.));
#273=CARTESIAN_POINT('',(1.,0.,0.));
#274=CARTESIAN_POINT('',(0.9375,0.,0.));
#275=CARTESIAN_POINT('',(0.812499999999999,0.,0.));
#276=CARTESIAN_POINT('',(0.6875,0.,0.));
#277=CARTESIAN_POINT('',(0.5625,0.,0.));
#278=CARTESIAN_POINT('',(0.5,0.,0.));
#279=CARTESIAN_POINT('',(0.,0.,0.));
#280=CARTESIAN_POINT('',(0.,0.,0.));
#281=CARTESIAN_POINT('',(0.,1.,0.));
#282=CARTESIAN_POINT('',(0.5,1.,0.));
#283=CARTESIAN_POINT('',(0.5,0.,0.));
#284=CARTESIAN_POINT('',(0.,0.,0.));
#285=CARTESIAN_POINT('',(0.,0.0625,0.));
#286=CARTESIAN_POINT('',(0.,0.1875,0.));
#287=CARTESIAN_POINT('',(0.,0.375,0.));
#288=CARTESIAN_POINT('',(0.,0.625,0.));
#289=CARTESIAN_POINT('',(0.,0.8125,0.));
#290=CARTESIAN_POINT('',(0.,0.9375,0.));
#291=CARTESIAN_POINT('',(0.,1.,0.));
#292=CARTESIAN_POINT('',(0.,1.,0.));
#293=CARTESIAN_POINT('',(0.0625,1.,0.));
#294=CARTESIAN_POINT('',(0.1875,1.,0.));
#295=CARTESIAN_POINT('',(0.3125,1.,0.));
#296=CARTESIAN_POINT('',(0.4375,1.,0.));
#297=CARTESIAN_POINT('',(0.5,1.,0.));
#298=CARTESIAN_POINT('',(0.5,1.,0.));
#299=CARTESIAN_POINT('',(0.5,0.9375,0.));
#300=CARTESIAN_POINT('',(0.5,0.8125,0.));
#301=CARTESIAN_POINT('',(0.350932339589558,0.625,0.));
#302=CARTESIAN_POINT('',(0.5,0.375,0.));
#303=CARTESIAN_POINT('',(0.636096058507852,0.1875,0.));
#304=CARTESIAN_POINT('',(0.5,0.0625,0.));
#305=CARTESIAN_POINT('',(0.5,0.,0.));
#306=CARTESIAN_POINT('',(0.5,0.,0.));
#307=CARTESIAN_POINT('',(0.4375,0.,0.));
#308=CARTESIAN_POINT('',(0.3125,0.,0.));
#309=CARTESIAN_POINT('',(0.1875,0.,0.));
#310=CARTESIAN_POINT('',(0.0625,0.,0.));
#311=CARTESIAN_POINT('',(0.,0.,0.));
#312=CARTESIAN_POINT('',(0.,0.,0.));
ENDSEC;
END-ISO-10303-21;
